<?xml version="1.0" encoding="UTF-8" standalone="no"?>
<svg width="54" height="54" viewBox="0 0 54 54" fill="none" xmlns="http://www.w3.org/2000/svg">
<circle cx="27" cy="27" r="27" fill="#FBD1CC"/>
<path d="M36.9 23.89L35.85 19.52C35.63 18.62 34.85 18 33.94 18H31.73H29.72H28H26H24.28H22.26H20.05C19.15 18 18.36 18.63 18.15 19.52L17.1 23.89C16.86 24.91 17.08 25.95 17.72 26.77C17.8 26.88 17.91 26.96 18 27.06V34C18 35.1 18.9 36 20 36H34C35.1 36 36 35.1 36 34V27.06C36.09 26.97 36.2 26.88 36.28 26.78C36.92 25.96 37.15 24.91 36.9 23.89ZM22.02 20L21.44 24.86C21.36 25.51 20.84 26 20.23 26C19.74 26 19.43 25.71 19.3 25.53C19.04 25.2 18.95 24.77 19.05 24.36L20.05 20H22.02ZM33.91 19.99L34.96 24.36C35.06 24.78 34.97 25.2 34.71 25.53C34.57 25.71 34.27 26 33.77 26C33.16 26 32.63 25.51 32.56 24.86L31.98 20L33.91 19.99ZM30.51 24.52C30.56 24.91 30.44 25.3 30.18 25.59C29.95 25.85 29.63 26 29.22 26C28.55 26 28 25.41 28 24.69V20H29.96L30.51 24.52ZM26 24.69C26 25.41 25.45 26 24.71 26C24.37 26 24.06 25.85 23.82 25.59C23.57 25.3 23.45 24.91 23.49 24.52L24.04 20H26V24.69ZM33 34H21C20.45 34 20 33.55 20 33V27.97C20.08 27.98 20.15 28 20.23 28C21.1 28 21.89 27.64 22.47 27.05C23.07 27.65 23.87 28 24.78 28C25.65 28 26.43 27.64 27.01 27.07C27.6 27.64 28.4 28 29.3 28C30.14 28 30.94 27.65 31.54 27.05C32.12 27.64 32.91 28 33.78 28C33.86 28 33.93 27.98 34.01 27.97V33C34 33.55 33.55 34 33 34Z" fill="#FA6E61"/>
</svg>
